<svg width="26" height="25" viewBox="0 0 26 25" fill="none" xmlns="http://www.w3.org/2000/svg">
<path d="M17.0669 14.0761C16.9543 13.9934 16.8722 13.8693 16.8486 13.7152L15.9772 8.02284L10.2849 8.89424C9.98693 8.93985 9.70258 8.731 9.65696 8.43303C9.61135 8.13505 9.8202 7.8507 10.1182 7.80509L16.3551 6.85033C16.6531 6.80472 16.9374 7.01357 16.983 7.31154L17.9378 13.5484C17.9834 13.8464 17.7745 14.1308 17.4766 14.1764C17.3284 14.2043 17.1794 14.1588 17.0669 14.0761Z" fill="#101113"/>
<path d="M8.71535 17.9099C8.47247 17.7315 8.41899 17.3821 8.59738 17.1393L15.9202 7.16927C16.0986 6.92639 16.4479 6.87291 16.6908 7.0513C16.9337 7.22969 16.9871 7.57904 16.8088 7.82193L9.48597 17.7919C9.30758 18.0348 8.95823 18.0883 8.71535 17.9099Z" fill="#101113"/>
</svg>
