<svg width="20" height="20" viewBox="0 0 20 20" fill="none" xmlns="http://www.w3.org/2000/svg">
<path d="M14.8318 11.2285C14.6758 11.2285 14.5199 11.286 14.3968 11.4091L9.84956 15.9563L5.30235 11.4091C5.06432 11.1711 4.67034 11.1711 4.43231 11.4091C4.19428 11.6471 4.19428 12.0411 4.43231 12.2791L9.41454 17.2614C9.65257 17.4994 10.0465 17.4994 10.2846 17.2614L15.2668 12.2791C15.5048 12.0411 15.5048 11.6471 15.2668 11.4091C15.1519 11.286 14.9877 11.2285 14.8318 11.2285Z" fill="white"/>
<path d="M9.84961 2.25719C9.51308 2.25719 9.23401 2.53626 9.23401 2.87279L9.23401 16.6868C9.23401 17.0233 9.51308 17.3024 9.84961 17.3024C10.1861 17.3024 10.4652 17.0233 10.4652 16.6868L10.4652 2.87279C10.4652 2.53626 10.1861 2.25719 9.84961 2.25719Z" fill="white"/>
</svg>
