<svg width="61" height="61" viewBox="0 0 61 61" fill="none" xmlns="http://www.w3.org/2000/svg">
<circle cx="30.2731" cy="30.4723" r="22.1615" transform="rotate(120 30.2731 30.4723)" fill="#FDC84C"/>
<path d="M34.9362 31.9366C34.7802 31.9366 34.6243 31.9941 34.5011 32.1172L29.9539 36.6644L25.4067 32.1172C25.1687 31.8792 24.7747 31.8792 24.5367 32.1172C24.2986 32.3552 24.2986 32.7492 24.5367 32.9873L29.5189 37.9695C29.7569 38.2075 30.1509 38.2075 30.3889 37.9695L35.3712 32.9873C35.6092 32.7492 35.6092 32.3552 35.3712 32.1172C35.2563 31.9941 35.0921 31.9366 34.9362 31.9366Z" fill="white"/>
<path d="M29.954 22.9653C29.6174 22.9653 29.3384 23.2444 29.3384 23.5809L29.3384 37.3949C29.3384 37.7314 29.6174 38.0105 29.954 38.0105C30.2905 38.0105 30.5696 37.7314 30.5696 37.3949L30.5696 23.5809C30.5696 23.2444 30.2905 22.9653 29.954 22.9653Z" fill="white"/>
</svg>
