<svg width="46" height="46" viewBox="0 0 46 46" fill="none" xmlns="http://www.w3.org/2000/svg">
<g clip-path="url(#clip0_5_3743)">
<path fill-rule="evenodd" clip-rule="evenodd" d="M23.1252 0.551758C35.6083 0.551758 45.7272 10.9259 45.7272 23.7255C45.7272 33.9619 39.2585 42.6457 30.2833 45.7128C29.1374 45.9411 28.7305 45.2174 28.7305 44.6003C28.7305 43.8364 28.7576 41.3412 28.7576 38.2402C28.7576 36.0794 28.0344 34.6692 27.223 33.9505C32.2565 33.3764 37.5453 31.4166 37.5453 22.5159C37.5453 19.9845 36.6684 17.9188 35.2173 16.2959C35.4524 15.7105 36.2276 13.3534 34.9958 10.162C34.9958 10.162 33.1018 9.54109 28.787 12.5381C26.9811 12.0251 25.0464 11.7669 23.1252 11.7579C21.2041 11.7669 19.2716 12.0251 17.4679 12.5381C13.1487 9.54109 11.2501 10.162 11.2501 10.162C10.0228 13.3534 10.7981 15.7105 11.0309 16.2959C9.58661 17.9188 8.70288 19.9845 8.70288 22.5159C8.70288 31.394 13.9804 33.3838 19.0004 33.9692C18.3539 34.5478 17.7685 35.5685 17.5651 37.0671C16.2768 37.6592 13.004 38.6841 10.9879 35.1424C10.9879 35.1424 9.79229 32.9158 7.52304 32.753C7.52304 32.753 5.31934 32.7238 7.36935 34.1612C7.36935 34.1612 8.84978 34.8732 9.87817 37.5515C9.87817 37.5515 11.2049 41.6876 17.4928 40.2863C17.5041 42.2233 17.5244 44.0488 17.5244 44.6003C17.5244 45.2128 17.1086 45.9297 15.9807 45.715C6.99867 42.6524 0.523193 33.9642 0.523193 23.7255C0.523193 10.9259 10.6444 0.551758 23.1252 0.551758Z" fill="#FDC84C"/>
</g>
<defs>
<clipPath id="clip0_5_3743">
<rect width="45.2041" height="45.2041" fill="white" transform="translate(0.523193 0.551758)"/>
</clipPath>
</defs>
</svg>
