<svg width="46" height="46" viewBox="0 0 46 46" fill="none" xmlns="http://www.w3.org/2000/svg">
<g clip-path="url(#clip0_4_3712)">
<path d="M44.4328 8.63734C44.2333 6.7657 43.3985 5.01893 42.0675 3.68798C40.7366 2.35703 38.9898 1.52224 37.1182 1.32267C27.4714 0.293485 17.7425 0.293485 8.09579 1.32267C6.22231 1.52004 4.47315 2.35385 3.14013 3.685C1.80711 5.01614 0.970847 6.76413 0.770853 8.63734C-0.258334 18.2841 -0.258334 28.013 0.770853 37.6597C0.968677 39.533 1.80264 41.2819 3.1337 42.6149C4.46476 43.9478 6.21249 44.7842 8.08552 44.9846C17.7323 46.0138 27.4611 46.0138 37.1079 44.9846C38.9812 44.7868 40.7301 43.9529 42.063 42.6218C43.396 41.2907 44.2324 39.543 44.4328 37.67C45.4628 28.0198 45.4628 18.2875 44.4328 8.63734ZM15.4105 36.3242C15.4108 36.4495 15.3864 36.5737 15.3387 36.6896C15.2909 36.8055 15.2208 36.9108 15.1323 36.9996C15.0438 37.0884 14.9386 37.1588 14.8228 37.2068C14.7071 37.2549 14.5829 37.2796 14.4576 37.2796H10.397C10.2715 37.2799 10.1471 37.2554 10.031 37.2076C9.91494 37.1597 9.80948 37.0893 9.72069 37.0005C9.6319 36.9117 9.56154 36.8063 9.51365 36.6902C9.46575 36.5741 9.44127 36.4497 9.44161 36.3242V19.3011C9.44161 19.0477 9.54227 18.8047 9.72145 18.6255C9.90062 18.4464 10.1436 18.3457 10.397 18.3457H14.4576C14.7105 18.3464 14.9529 18.4473 15.1315 18.6265C15.3102 18.8056 15.4105 19.0482 15.4105 19.3011V36.3242ZM12.426 16.7328C11.6641 16.7328 10.9192 16.5068 10.2857 16.0835C9.65214 15.6602 9.15835 15.0585 8.86676 14.3546C8.57517 13.6506 8.49888 12.876 8.64753 12.1287C8.79618 11.3813 9.1631 10.6949 9.70189 10.1561C10.2407 9.61732 10.9271 9.2504 11.6744 9.10175C12.4218 8.9531 13.1964 9.02939 13.9003 9.32098C14.6043 9.61257 15.206 10.1064 15.6293 10.7399C16.0526 11.3734 16.2786 12.1183 16.2786 12.8803C16.2786 13.902 15.8727 14.8819 15.1502 15.6044C14.4277 16.3269 13.4478 16.7328 12.426 16.7328ZM36.6353 36.3909C36.6357 36.5064 36.6132 36.6208 36.5691 36.7275C36.5251 36.8342 36.4604 36.9312 36.3788 37.0128C36.2972 37.0944 36.2002 37.1591 36.0935 37.2031C35.9868 37.2472 35.8724 37.2697 35.7569 37.2693H31.3907C31.2753 37.2697 31.1609 37.2472 31.0542 37.2031C30.9475 37.1591 30.8505 37.0944 30.7689 37.0128C30.6873 36.9312 30.6226 36.8342 30.5785 36.7275C30.5345 36.6208 30.512 36.5064 30.5124 36.3909V28.4162C30.5124 27.2245 30.8617 23.1973 27.397 23.1973C24.713 23.1973 24.166 25.9532 24.0581 27.1911V36.4012C24.0581 36.632 23.9673 36.8535 23.8054 37.0178C23.6434 37.1822 23.4233 37.2762 23.1926 37.2796H18.9753C18.8601 37.2796 18.746 37.2569 18.6396 37.2127C18.5332 37.1685 18.4365 37.1038 18.3551 37.0222C18.2738 36.9406 18.2093 36.8437 18.1655 36.7372C18.1216 36.6306 18.0992 36.5164 18.0995 36.4012V19.2267C18.0992 19.1114 18.1216 18.9973 18.1655 18.8907C18.2093 18.7842 18.2738 18.6873 18.3551 18.6057C18.4365 18.5241 18.5332 18.4594 18.6396 18.4152C18.746 18.371 18.8601 18.3483 18.9753 18.3483H23.1926C23.4255 18.3483 23.6489 18.4408 23.8137 18.6055C23.9784 18.7703 24.0709 18.9937 24.0709 19.2267V20.7112C25.0675 19.2138 26.5443 18.0632 29.6956 18.0632C36.6764 18.0632 36.6302 24.5817 36.6302 28.1619L36.6353 36.3909Z" fill="#FDC84C"/>
</g>
<defs>
<clipPath id="clip0_4_3712">
<rect width="45.203" height="45.203" fill="white" transform="translate(0 0.551758)"/>
</clipPath>
</defs>
</svg>
