<svg width="78" height="73" viewBox="0 0 78 73" fill="none" xmlns="http://www.w3.org/2000/svg">
<g clip-path="url(#clip0_4_3550)">
<path fill-rule="evenodd" clip-rule="evenodd" d="M72.7123 1.52626C77.5336 4.49543 79.0324 10.8453 76.0453 15.6324L48.1342 60.394C45.1471 65.1864 38.7589 66.6762 33.9429 63.707C29.1268 60.7378 27.628 54.388 30.6099 49.6008L58.521 4.83923C61.508 0.0520908 67.8963 -1.44291 72.7123 1.52626Z" fill="white" fill-opacity="0.84"/>
<path fill-rule="evenodd" clip-rule="evenodd" d="M0.225347 27.332L3.96754e-06 62.4829C-0.0366797 68.1191 4.56974 72.7552 10.24 72.7916C15.9102 72.8281 20.5796 68.2493 20.6162 62.6131L20.6424 58.649L0.225347 27.332Z" fill="#CED1D4"/>
<path fill-rule="evenodd" clip-rule="evenodd" d="M5.74885 1.52626C0.927564 4.49543 -0.571227 10.8453 2.41587 15.6376L30.3269 60.3992C33.314 65.1916 39.7022 66.6814 44.5183 63.7122C49.3396 60.743 50.8383 54.3932 47.8512 49.606L19.9402 4.83923C16.9531 0.0520908 10.5649 -1.44291 5.74885 1.52626Z" fill="white"/>
<path fill-rule="evenodd" clip-rule="evenodd" d="M67.5294 52.1741C73.315 52.1741 78.0052 56.8362 78.0052 62.5871C78.0052 68.3379 73.315 73 67.5294 73C61.7439 73 57.0536 68.3379 57.0536 62.5871C57.0536 56.8362 61.7439 52.1741 67.5294 52.1741Z" fill="#FDC84C"/>
</g>
<defs>
<clipPath id="clip0_4_3550">
<rect width="78" height="73" fill="white"/>
</clipPath>
</defs>
</svg>
