<svg width="100" height="100" viewBox="0 0 100 100" fill="none" xmlns="http://www.w3.org/2000/svg">
<path d="M42.8022 22.3496H88.6905C90.0912 22.3496 91.2266 23.4869 91.2266 24.8877V60.8424H9.52698V39.5334" stroke="white" stroke-width="2" stroke-miterlimit="10" stroke-linecap="round" stroke-linejoin="round"/>
<path d="M91.2268 65.3063V60.8423H9.52698V69.8614C9.52698 71.2622 10.6623 72.3995 12.0651 72.3995H69.3492" stroke="white" stroke-width="2" stroke-miterlimit="10" stroke-linecap="round" stroke-linejoin="round"/>
<path d="M58.9682 72.3992H41.7864V87.9199H58.9682V72.3992Z" stroke="white" stroke-width="2" stroke-miterlimit="10" stroke-linecap="round" stroke-linejoin="round"/>
<path d="M29.4641 93.4318C29.4641 90.3877 31.9319 87.9199 34.976 87.9199H65.7786C68.8227 87.9199 71.2905 90.3877 71.2905 93.4318" stroke="white" stroke-width="2" stroke-miterlimit="10" stroke-linecap="round" stroke-linejoin="round"/>
<path d="M87.3387 66.7358L89.1395 65.6823C90.9034 64.6502 93.1651 65.5871 93.6827 67.5641L94.211 69.5823L96.2291 70.1106C98.2061 70.6282 99.1428 72.8899 98.111 74.6537L97.0575 76.4545L98.111 78.2553C99.1428 80.0192 98.2061 82.2809 96.2291 82.7985L94.211 83.3268L93.6827 85.345C93.1651 87.3219 90.9034 88.2586 89.1395 87.2268L87.3387 86.1733L85.5379 87.2268C83.7741 88.2586 81.5124 87.3219 80.9948 85.345L80.4665 83.3268L78.4483 82.7985C76.4713 82.2809 75.5346 80.0192 76.5665 78.2553L77.62 76.4545L76.5665 74.6537C75.5346 72.8899 76.4713 70.6282 78.4483 70.1106L80.4665 69.5823L80.9948 67.5641C81.5124 65.5871 83.7741 64.6502 85.5379 65.6823L87.3387 66.7358Z" stroke="white" stroke-width="2" stroke-miterlimit="10" stroke-linecap="round" stroke-linejoin="round"/>
<path d="M87.3387 80.5105C89.5786 80.5105 91.3944 78.6947 91.3944 76.4548C91.3944 74.215 89.5786 72.3992 87.3387 72.3992C85.0989 72.3992 83.2831 74.215 83.2831 76.4548C83.2831 78.6947 85.0989 80.5105 87.3387 80.5105Z" stroke="white" stroke-width="2" stroke-miterlimit="10" stroke-linecap="round" stroke-linejoin="round"/>
<path d="M39.5164 39.5329H4.75059C2.93594 39.5329 1.46484 38.0618 1.46484 36.2471V12.9417H42.8022V36.2471C42.8022 38.0618 41.3311 39.5329 39.5164 39.5329Z" stroke="white" stroke-width="2" stroke-miterlimit="10" stroke-linecap="round" stroke-linejoin="round"/>
<path d="M27.4785 6.56812H4.75059C2.93594 6.56812 1.46484 8.03921 1.46484 9.85386V12.9417H42.8022V9.85386C42.8022 8.03921 41.3311 6.56812 39.5164 6.56812H34.2732" stroke="white" stroke-width="2" stroke-miterlimit="10" stroke-linecap="round" stroke-linejoin="round"/>
<path d="M42.8021 33.7512H63.5267" stroke="white" stroke-width="2" stroke-miterlimit="10" stroke-linecap="round" stroke-linejoin="round"/>
<path d="M36.7715 39.533H63.5268" stroke="white" stroke-width="2" stroke-miterlimit="10" stroke-linecap="round" stroke-linejoin="round"/>
<path d="M23.7933 45.3149H63.5267" stroke="white" stroke-width="2" stroke-miterlimit="10" stroke-linecap="round" stroke-linejoin="round"/>
<path d="M23.7933 51.0967H44.5685" stroke="white" stroke-width="2" stroke-miterlimit="10" stroke-linecap="round" stroke-linejoin="round"/>
<path d="M77.0804 33.7512L70.8644 45.3149" stroke="white" stroke-width="2" stroke-miterlimit="10" stroke-linecap="round" stroke-linejoin="round"/>
<path d="M25.4026 20.1555L19.1868 31.7194" stroke="white" stroke-width="2" stroke-miterlimit="10" stroke-linecap="round" stroke-linejoin="round"/>
<path d="M30.9349 21.3591L35.5135 25.9376L30.9349 30.516" stroke="white" stroke-width="2" stroke-miterlimit="10" stroke-linecap="round" stroke-linejoin="round"/>
<path d="M13.6542 21.3591L9.07593 25.9376L13.6542 30.516" stroke="white" stroke-width="2" stroke-miterlimit="10" stroke-linecap="round" stroke-linejoin="round"/>
</svg>
