<svg width="100" height="100" viewBox="0 0 100 100" fill="none" xmlns="http://www.w3.org/2000/svg">
<path d="M98.5352 72.7178C99.3441 72.7178 100 72.062 100 71.253V38.0096C100 35.0995 97.673 32.7241 94.7822 32.6424V5.94263C94.7822 2.98091 92.3727 0.571533 89.4111 0.571533H24.6906C23.8816 0.571533 23.2258 1.22739 23.2258 2.03638C23.2258 2.84536 23.8816 3.50122 24.6906 3.50122H89.4111C90.7572 3.50122 91.8525 4.59634 91.8525 5.94263V32.6385H87.3604V10.6301C87.3604 9.17622 86.1775 7.99341 84.7236 7.99341H15.2764C13.8225 7.99341 12.6396 9.17622 12.6396 10.6301V50.8905C12.6396 52.3444 13.8225 53.5272 15.2764 53.5272H59.1725V58.0194H8.14746V5.94263C8.14746 4.59634 9.24258 3.50122 10.5889 3.50122H18.8312C19.6402 3.50122 20.2961 2.84536 20.2961 2.03638C20.2961 1.22739 19.6402 0.571533 18.8312 0.571533H10.5889C7.62715 0.571533 5.21777 2.98091 5.21777 5.94263V58.0194H3.41797C1.5334 58.0194 0 59.5526 0 61.4374V63.4405C0 68.5561 4.16191 72.7178 9.27734 72.7178H59.1725V94.0575C59.1725 97.0192 61.5818 99.4286 64.5436 99.4286H94.6289C97.5906 99.4286 100 97.0192 100 94.0575V77.1124C100 76.3034 99.3441 75.6475 98.5352 75.6475C97.7262 75.6475 97.0703 76.3034 97.0703 77.1124V89.3833H62.1021V38.0096C62.1021 36.6633 63.1973 35.5682 64.5436 35.5682H94.6289C95.9752 35.5682 97.0703 36.6633 97.0703 38.0096V71.253C97.0703 72.062 97.7262 72.7178 98.5352 72.7178ZM59.1725 64.1415H32.6994C32.4303 64.1415 32.2111 63.9223 32.2111 63.6532V60.9491H59.1725V64.1415ZM9.27734 69.7881C5.77734 69.7881 2.92969 66.9407 2.92969 63.4405V61.4374C2.92969 61.1682 3.14883 60.9491 3.41797 60.9491H6.68262H29.2814V63.6532C29.2814 65.5377 30.8148 67.0711 32.6994 67.0711H59.1725V69.7881H9.27734ZM97.0703 92.3129V94.0577C97.0703 95.404 95.9752 96.4991 94.6289 96.4991H64.5436C63.1973 96.4991 62.1021 95.404 62.1021 94.0577V92.3129H97.0703ZM59.1725 38.0096V50.5975H15.5693V10.9231H84.4307V32.6385H64.5436C61.5818 32.6385 59.1725 35.0479 59.1725 38.0096Z" fill="white"/>
<path d="M82.7955 41.3003C83.6045 41.3003 84.2604 40.6444 84.2604 39.8354C84.2604 39.0265 83.6045 38.3706 82.7955 38.3706H76.377C75.568 38.3706 74.9121 39.0265 74.9121 39.8354C74.9121 40.6444 75.568 41.3003 76.377 41.3003H82.7955Z" fill="white"/>
<path d="M70.1208 15.7383H29.8792C28.4252 15.7383 27.2424 16.9211 27.2424 18.375V23.759C27.2424 25.2129 28.4252 26.3957 29.8792 26.3957H70.1208C71.5747 26.3957 72.7575 25.2129 72.7575 23.759V18.375C72.7575 16.9211 71.5747 15.7383 70.1208 15.7383ZM69.8278 23.466H30.1721V18.668H69.8278V23.466Z" fill="white"/>
<path d="M49.4139 29.2954H29.8792C28.4252 29.2954 27.2424 30.4782 27.2424 31.9321V37.3161C27.2424 38.77 28.4252 39.9528 29.8792 39.9528H49.4139C50.8678 39.9528 52.0506 38.77 52.0506 37.3161V31.9321C52.0508 30.4782 50.8678 29.2954 49.4139 29.2954ZM49.1209 37.0231H30.1721V32.2251H49.1209V37.0231Z" fill="white"/>
<path d="M50.586 43.2427H28.7073C27.8983 43.2427 27.2424 43.8985 27.2424 44.7075C27.2424 45.5165 27.8983 46.1724 28.7073 46.1724H50.586C51.395 46.1724 52.0508 45.5165 52.0508 44.7075C52.0508 43.8985 51.395 43.2427 50.586 43.2427Z" fill="white"/>
<path d="M91.9905 48.5205C91.9905 47.0666 90.8077 45.8838 89.3538 45.8838H69.8188C68.3649 45.8838 67.1821 47.0666 67.1821 48.5205V53.9045C67.1821 55.3584 68.3649 56.5412 69.8188 56.5412H89.3536C90.8075 56.5412 91.9903 55.3584 91.9903 53.9045V48.5205H91.9905ZM89.0608 53.6115H70.112V48.8135H89.0608V53.6115Z" fill="white"/>
<path d="M90.5257 59.8308H68.647C67.838 59.8308 67.1821 60.4867 67.1821 61.2957C67.1821 62.1046 67.838 62.7605 68.647 62.7605H90.5255C91.3345 62.7605 91.9903 62.1046 91.9903 61.2957C91.9905 60.4867 91.3347 59.8308 90.5257 59.8308Z" fill="white"/>
<path d="M91.9905 69.7227C91.9905 68.2687 90.8077 67.0859 89.3538 67.0859H69.8188C68.3649 67.0859 67.1821 68.2687 67.1821 69.7227V75.1066C67.1821 76.5605 68.3649 77.7434 69.8188 77.7434H89.3536C90.8075 77.7434 91.9903 76.5605 91.9903 75.1066V69.7227H91.9905ZM89.0608 74.8137H70.112V70.0156H89.0608V74.8137Z" fill="white"/>
<path d="M68.647 81.033C67.838 81.033 67.1821 81.6888 67.1821 82.4978C67.1821 83.3068 67.838 83.9626 68.647 83.9626H90.5255C91.3345 83.9626 91.9903 83.3068 91.9903 82.4978C91.9903 81.6888 91.3345 81.033 90.5255 81.033H68.647Z" fill="white"/>
</svg>
