<svg width="100" height="100" viewBox="0 0 100 100" fill="none" xmlns="http://www.w3.org/2000/svg">
<path d="M92.1875 38.5826H84.079C83.548 36.998 82.9101 35.4553 82.1716 33.9737L87.9044 28.2425C88.7894 27.3567 89.2777 26.1795 89.2777 24.9275C89.2777 23.6755 88.7894 22.4983 87.9044 21.6133L83.7174 17.4271C83.107 16.8167 82.1182 16.8167 81.5079 17.4271C80.8975 18.0374 80.8975 19.027 81.5079 19.6365L85.6949 23.8235C85.9909 24.118 86.1527 24.5102 86.1527 24.9275C86.1527 25.3448 85.9909 25.737 85.6949 26.0323L79.1535 32.5729C78.6652 33.0612 78.5553 33.8127 78.8834 34.4208C79.9362 36.3663 80.7953 38.4422 81.4377 40.593C81.6361 41.2544 82.2434 41.7076 82.9346 41.7076H92.1875C93.0497 41.7076 93.75 42.4088 93.75 43.2701V56.7299C93.75 57.5913 93.0497 58.2924 92.1875 58.2924H82.9346C82.2434 58.2924 81.6361 58.7456 81.4377 59.4071C80.7953 61.5578 79.9362 63.6337 78.8834 65.5792C78.5553 66.1873 78.6652 66.9388 79.1535 67.4271L85.6949 73.9685C85.9909 74.263 86.1527 74.6552 86.1527 75.0725C86.1527 75.4898 85.9909 75.882 85.6949 76.1772L76.178 85.6941C75.5677 86.303 74.5774 86.3053 73.967 85.6949L67.4271 79.1535C66.9373 78.6629 66.185 78.5546 65.5792 78.8842C63.6353 79.9355 61.5585 80.7938 59.4071 81.437C58.7448 81.6346 58.2916 82.2434 58.2916 82.9338V92.1875C58.2916 93.0489 57.5913 93.75 56.7291 93.75H43.2709C42.4087 93.75 41.7084 93.0489 41.7084 92.1875V82.9338C41.7084 82.2434 41.2552 81.6346 40.593 81.437C38.4415 80.7938 36.3647 79.9355 34.4208 78.8842C33.815 78.5561 33.0627 78.6644 32.5729 79.1535L26.033 85.6942C25.4242 86.303 24.4339 86.3053 23.822 85.6949L14.3051 76.1765C14.0091 75.882 13.8473 75.4898 13.8473 75.0725C13.8473 74.6552 14.0091 74.263 14.3051 73.9678L20.8465 67.4271C21.3348 66.9388 21.4447 66.1873 21.1166 65.5792C20.0638 63.6337 19.2047 61.5578 18.5623 59.4071C18.3639 58.7456 17.7566 58.2924 17.0654 58.2924H7.8125C6.95038 58.2924 6.25 57.5913 6.25 56.7299V43.2701C6.25 42.4088 6.95038 41.7076 7.8125 41.7076H17.0654C17.7567 41.7076 18.364 41.2544 18.5623 40.593C19.2047 38.4422 20.0638 36.3663 21.1167 34.4208C21.4447 33.8127 21.3349 33.0612 20.8466 32.5729L14.3051 26.0315C14.0091 25.737 13.8474 25.3449 13.8474 24.9275C13.8474 24.5102 14.0091 24.118 14.3051 23.8228L23.822 14.3059C24.4309 13.6971 25.4212 13.6948 26.033 14.3051L32.573 20.8466C33.0613 21.3356 33.8135 21.4432 34.4208 21.1159C36.3648 20.0645 38.4415 19.2062 40.593 18.5631C41.2552 18.3655 41.7084 17.7567 41.7084 17.0662V7.8125C41.7084 6.95114 42.4088 6.25 43.2709 6.25H56.7292C57.5913 6.25 58.2917 6.95114 58.2917 7.8125V17.0662C58.2917 17.7566 58.7449 18.3655 59.4071 18.5631C61.5586 19.2062 63.6353 20.0645 65.5793 21.1159C66.205 21.4098 66.9081 21.3036 67.4271 20.8466L73.967 14.3059C74.5789 13.6948 75.5692 13.6978 76.178 14.3059C76.7884 14.9147 77.7772 14.9155 78.3875 14.3051C78.9979 13.6947 78.9979 12.7052 78.3875 12.0949C76.558 10.2669 73.584 10.2707 71.7576 12.0956L66.0028 17.8517C64.5239 17.1151 62.999 16.4511 61.4167 15.9218V7.8125C61.4167 5.22766 59.314 3.125 56.7292 3.125H43.271C40.6861 3.125 38.5835 5.22766 38.5835 7.8125V15.9218C36.9981 16.452 35.4554 17.0898 33.9738 17.8276L28.2426 12.0949C26.413 10.2669 23.4391 10.2707 21.6126 12.0956L12.0957 21.6125C11.2107 22.4983 10.7224 23.6755 10.7224 24.9275C10.7224 26.1795 11.2107 27.3567 12.0957 28.2417L17.8285 33.9737C17.0899 35.4553 16.4521 36.998 15.9211 38.5826H7.8125C5.22766 38.5826 3.125 40.6853 3.125 43.2701V56.7299C3.125 59.3147 5.22766 61.4174 7.8125 61.4174H15.921C16.452 63.002 17.0898 64.5447 17.8284 66.0263L12.0956 71.7575C11.2106 72.6433 10.7223 73.8205 10.7223 75.0725C10.7223 76.3245 11.2106 77.5017 12.0956 78.3867L21.6125 87.9051C23.4421 89.7324 26.416 89.7301 28.2425 87.9044L33.9737 82.1724C35.4553 82.9102 36.998 83.548 38.5834 84.0782V92.1875C38.5834 94.7723 40.686 96.875 43.2709 96.875H56.7291C59.314 96.875 61.4166 94.7723 61.4166 92.1875V84.0782C63.002 83.548 64.5447 82.9102 66.0263 82.1724L71.7575 87.9051C73.587 89.7324 76.561 89.7301 78.3874 87.9044L87.9043 78.3875C88.7894 77.5017 89.2776 76.3245 89.2776 75.0725C89.2776 73.8205 88.7894 72.6433 87.9043 71.7583L82.1716 66.0263C82.9101 64.5447 83.548 63.002 84.079 61.4174H92.1875C94.7723 61.4174 96.875 59.3147 96.875 56.7299V43.2701C96.875 40.6853 94.7723 38.5826 92.1875 38.5826Z" fill="white"/>
<path d="M29.5364 67.0082C28.9063 67.598 28.8742 68.5867 29.4632 69.2162C34.7626 74.8779 42.247 78.125 50 78.125C65.5075 78.125 78.125 65.5083 78.125 50C78.125 34.4917 65.5075 21.875 50 21.875C34.4925 21.875 21.875 34.4917 21.875 50C21.875 54.6822 23.0484 59.3185 25.2701 63.4071C25.6836 64.1647 26.6327 64.4432 27.3895 64.0343C28.1479 63.6223 28.4287 62.6732 28.0167 61.9148C26.0437 58.2832 25 54.1626 25 50C25 36.2152 36.2152 25 50 25C63.7848 25 75 36.2152 75 50C75 63.7848 63.7848 75 50 75C43.1091 75 36.4548 72.1138 31.7459 67.0815C31.1554 66.4513 30.1681 66.42 29.5364 67.0082Z" fill="white"/>
<path d="M33.783 59.9037L35.4952 55.1407H42.6115L44.3237 59.9037C44.5541 60.5408 45.1538 60.9383 45.7947 60.9383C45.9702 60.9383 46.1487 60.9085 46.3226 60.8452C47.1359 60.5538 47.5571 59.658 47.2656 58.8463L45.2927 53.3588C45.2613 53.1448 45.1916 52.9513 45.0827 52.7748L40.5243 40.0963C40.3 39.476 39.7125 39.0625 39.0533 39.0625C38.3942 39.0625 37.8067 39.476 37.5824 40.0963L30.8411 58.8463C30.5496 59.658 30.9708 60.5537 31.7841 60.8452C32.5913 61.1382 33.4885 60.7155 33.783 59.9037ZM39.0533 45.2431L41.4881 52.0157H36.6186L39.0533 45.2431Z" fill="white"/>
<path d="M52.4506 59.375V51.5625H57.8964C61.3434 51.5625 64.1464 48.7587 64.1464 45.3125C64.1464 41.8663 61.3434 39.0625 57.8964 39.0625H50.8881C50.0244 39.0625 49.3256 39.7621 49.3256 40.625V59.375C49.3256 60.2379 50.0244 60.9375 50.8881 60.9375C51.7517 60.9375 52.4506 60.2379 52.4506 59.375ZM61.0214 45.3125C61.0214 47.036 59.6191 48.4375 57.8964 48.4375H52.4506V42.1875H57.8964C59.6191 42.1875 61.0214 43.589 61.0214 45.3125Z" fill="white"/>
<path d="M69.2505 59.375V40.625C69.2505 39.7621 68.5516 39.0625 67.688 39.0625C66.8243 39.0625 66.1255 39.7621 66.1255 40.625V59.375C66.1255 60.2379 66.8243 60.9375 67.688 60.9375C68.5516 60.9375 69.2505 60.2379 69.2505 59.375Z" fill="white"/>
</svg>
