<svg width="46" height="46" viewBox="0 0 46 46" fill="none" xmlns="http://www.w3.org/2000/svg">
<g clip-path="url(#clip0_4_3731)">
<path d="M31.1785 15.3405L31.122 15.2814C29.2753 13.4264 26.8263 12.2927 24.2171 12.0849C21.6079 11.8772 19.0104 12.609 16.8934 14.1484C14.7765 15.6877 13.2796 17.9332 12.6729 20.4794C12.0663 23.0256 12.3899 25.7047 13.5853 28.0333L14.0681 28.9836L13.1692 33.3498L13.1564 33.4088L17.4943 32.3815L18.4831 32.8669C20.5406 33.889 22.8666 34.2405 25.1342 33.8719C27.4017 33.5034 29.4967 32.4333 31.1245 30.8122C33.1796 28.7516 34.3349 25.9609 34.3376 23.0507C34.348 20.1635 33.2117 17.3903 31.1785 15.3405ZM30.7367 27.5941C30.2051 28.4314 29.3652 29.4562 28.3096 29.7104C26.4604 30.1599 23.6224 29.7258 20.0909 26.4358L20.0472 26.3921C16.9421 23.5156 16.1356 21.1219 16.3308 19.2187C16.4387 18.1374 17.3376 17.164 18.0953 16.5271C18.2149 16.4248 18.3568 16.3518 18.5096 16.3141C18.6624 16.2764 18.8219 16.275 18.9754 16.3099C19.1289 16.3449 19.2721 16.4152 19.3935 16.5154C19.515 16.6155 19.6113 16.7426 19.6748 16.8866L20.8178 19.4704C20.892 19.6369 20.9195 19.8205 20.8974 20.0015C20.8752 20.1825 20.8042 20.3541 20.6919 20.4977L20.114 21.2477C19.9927 21.4013 19.9195 21.5874 19.9035 21.7825C19.8875 21.9776 19.9295 22.173 20.0241 22.3444C20.3477 22.9094 21.1234 23.7441 21.9838 24.5224C22.9495 25.393 24.0205 26.1918 24.6985 26.4666C24.8804 26.539 25.0797 26.556 25.2712 26.5153C25.4627 26.4746 25.6379 26.3781 25.7747 26.238L26.445 25.5625C26.5744 25.435 26.7352 25.344 26.9112 25.2989C27.0871 25.2538 27.2719 25.2561 27.4467 25.3057L30.1614 26.0762C30.3131 26.1194 30.4525 26.1975 30.5686 26.3042C30.6847 26.4109 30.7743 26.5433 30.8302 26.6907C30.8861 26.8382 30.9067 26.9966 30.8905 27.1535C30.8743 27.3103 30.8216 27.4612 30.7367 27.5941Z" fill="#FDC84C"/>
<path d="M45.1941 8.63722C44.9972 6.76454 44.1634 5.01623 42.8319 3.68475C41.5004 2.35327 39.7521 1.51937 37.8794 1.32256C28.2329 0.288314 18.5035 0.288314 8.85702 1.32256C6.98249 1.51716 5.23179 2.35008 3.89824 3.68176C2.56469 5.01344 1.72932 6.76297 1.53208 8.63722C0.502896 18.284 0.502896 28.0128 1.53208 37.6596C1.72668 39.5341 2.5596 41.2848 3.89128 42.6184C5.22296 43.9519 6.9725 44.7873 8.84675 44.9845C18.4932 46.0188 28.2226 46.0188 37.8691 44.9845C39.7437 44.7899 41.4944 43.957 42.8279 42.6253C44.1615 41.2937 44.9968 39.5441 45.1941 37.6699C46.224 28.0197 46.224 18.2874 45.1941 8.63722ZM37.3683 23.4874C37.2925 25.8339 36.6285 28.1237 35.4373 30.1466C34.2461 32.1696 32.5657 33.861 30.5506 35.0654C28.5354 36.2698 26.25 36.9488 23.9041 37.0399C21.5583 37.131 19.2271 36.6314 17.1245 35.5869L10.0487 37.2795C9.95944 37.3003 9.86636 37.2983 9.77803 37.2737C9.6897 37.2491 9.60897 37.2027 9.54325 37.1388C9.47754 37.0749 9.42894 36.9955 9.40193 36.9078C9.37492 36.8202 9.37036 36.7272 9.38867 36.6374L10.8757 29.4178C9.90578 27.5131 9.38436 25.4118 9.3514 23.2747C9.31844 21.1376 9.77479 19.0212 10.6856 17.0875C11.5963 15.1539 12.9374 13.4542 14.606 12.1186C16.2747 10.7829 18.2268 9.84669 20.313 9.38153C22.3992 8.91636 24.5641 8.93459 26.6421 9.43481C28.7202 9.93503 30.6563 10.904 32.3022 12.2675C33.9482 13.6311 35.2604 15.3531 36.1385 17.3018C37.0166 19.2505 37.4372 21.3743 37.3683 23.5105V23.4874Z" fill="#FDC84C"/>
</g>
<defs>
<clipPath id="clip0_4_3731">
<rect width="45.203" height="45.203" fill="white" transform="translate(0.761536 0.551758)"/>
</clipPath>
</defs>
</svg>
